<svg width="621" height="717" viewBox="0 0 621 717" fill="none" xmlns="http://www.w3.org/2000/svg">
<path d="M280.604 67.8977L43.8683 204.577L107.088 241.077L280.604 140.898V67.8977Z" fill="#FFD900"/>
<path d="M107.088 241.077L43.8683 204.577V512.577L75.4782 494.327L91.2831 485.202L107.088 476.077L107.088 241.077Z" fill="#FF0062"/>
<path d="M43.8683 512.577L280.604 649.257V576.257L107.088 476.077L91.2831 485.202L75.4782 494.327L43.8683 512.577Z" fill="#FF4000"/>
<path d="M340.604 140.898V308.577H370.604H400.604V175.539L514.12 241.077L545.73 222.827L577.34 204.577L340.604 67.8977V123.577V140.898Z" fill="#FF0000"/>
<path d="M340.604 368.577H400.604H514.12H576.821L576.604 308.577H514.12H447.5H400.604H370.604H340.604V368.577Z" fill="#358445"/>
<path fill-rule="evenodd" clip-rule="evenodd" d="M310.104 0.577148L619.708 179.327V536.827L310.104 715.577L0.5 536.827V179.327L310.104 0.577148ZM43.8683 204.577L280.604 67.8977V140.898L107.088 241.077L107.088 476.077L280.604 576.257V649.257L43.8683 512.577V204.577ZM340.604 308.577V140.898V123.577V67.8977L577.34 204.577L545.73 222.827L514.12 241.077L400.604 175.539V308.577H447.5H514.12H576.604L576.821 368.577L577.34 512.577L514.12 549.077L340.604 649.257V576.257L514.12 476.077V368.577H400.604H340.604V308.577Z" fill="white"/>
<path fill-rule="evenodd" clip-rule="evenodd" d="M514.12 476.077V368.577H576.821L577.34 512.577L514.12 549.077V476.077Z" fill="#00B7FF"/>
<path d="M340.604 576.257V649.257L514.12 549.077V476.077L340.604 576.257Z" fill="#373636"/>
<path d="M43.8683 204.577L280.604 67.8977V140.898L107.088 241.077M43.8683 204.577L107.088 241.077M43.8683 204.577V512.577M107.088 241.077L107.088 476.077M340.604 368.577H400.604H514.12M340.604 368.577V140.898M340.604 368.577V308.577M340.604 368.577H514.12M340.604 140.898V123.577V67.8977M340.604 140.898V67.8977M340.604 140.898V308.577M340.604 308.577H370.604H400.604M43.8683 512.577L280.604 649.257V576.257L107.088 476.077M43.8683 512.577L75.4782 494.327L91.2831 485.202M43.8683 512.577L91.2831 485.202M43.8683 512.577L107.088 476.077M514.12 476.077V368.577M514.12 476.077L340.604 576.257V649.257L514.12 549.077M514.12 476.077V549.077M107.088 476.077L91.2831 485.202M340.604 67.8977L577.34 204.577L545.73 222.827L514.12 241.077L400.604 175.539V308.577M400.604 308.577H447.5H514.12H576.604L576.821 368.577M514.12 368.577H576.821M576.821 368.577L577.34 512.577L514.12 549.077M619.708 179.327L310.104 0.577148L0.5 179.327V536.827L310.104 715.577L619.708 536.827V179.327Z" stroke="#373636"/>
</svg>
